HIERARCHY
ROOT Hips
{
	OFFSET 0.000000 0.000000 0.000000
	CHANNELS 6 Xposition Yposition Zposition Zrotation Yrotation Xrotation 
	JOINT LHipJoint
	{
		OFFSET 0.000000 0.000000 0.000000
		CHANNELS 3 Zrotation Yrotation Xrotation
		JOINT LeftUpLeg
		{
			OFFSET 1.363060 -1.794630 0.839290
			CHANNELS 3 Zrotation Yrotation Xrotation
			JOINT LeftLeg
			{
				OFFSET 2.448110 -6.726130 0.000000
				CHANNELS 3 Zrotation Yrotation Xrotation
				JOINT LeftFoot
				{
					OFFSET 2.562200 -7.039590 0.000000
					CHANNELS 3 Zrotation Yrotation Xrotation
					JOINT LeftToeBase
					{
						OFFSET 0.157640 -0.433110 2.322550
						CHANNELS 3 Zrotation Yrotation Xrotation
						End Site
						{
							OFFSET 0.000000 0.000000 0.000000
						}
					}
				}
			}
		}
	}
	JOINT RHipJoint
	{
		OFFSET 0.000000 0.000000 0.000000
		CHANNELS 3 Zrotation Yrotation Xrotation
		JOINT RightUpLeg
		{
			OFFSET -1.305520 -1.794630 0.839290
			CHANNELS 3 Zrotation Yrotation Xrotation
			JOINT RightLeg
			{
				OFFSET -2.542530 -6.985550 0.000000
				CHANNELS 3 Zrotation Yrotation Xrotation
				JOINT RightFoot
				{
					OFFSET -2.568260 -7.056230 0.000000
					CHANNELS 3 Zrotation Yrotation Xrotation
					JOINT RightToeBase
					{
						OFFSET -0.164730 -0.452590 2.363150
						CHANNELS 3 Zrotation Yrotation Xrotation
						End Site
						{
							OFFSET 0.000000 0.000000 0.000000
						}
					}
				}
			}
		}
	}
}
MOTION
Frames: 28
Frame Time: 0.008333
0.023497 16.821666 -0.283116 44.332035 81.116106 62.192041 -11.971940 3.435267 -1.853950 -1.769461 8.964192 -7.581467 -0.863877 1.933754 30.234993 0.771393 -1.362804 18.510798 -0.926501 0.000000 -82.413800 8.888679 1.255441 0.496400 7.713684 -2.967772 -45.543900 1.873162 -1.038783 21.512137 -1.940142 -8.602272 0.123177 -2.281000 -0.000001 -17.040700
0.181826 16.833312 -0.203044 42.856091 81.118679 60.647123 -12.074101 3.368677 -1.843845 -1.214698 9.070731 -8.573627 -0.703905 2.038492 32.527137 0.899389 -1.596150 20.308631 -1.155601 -0.000000 -79.831699 8.807961 1.176584 0.419789 8.144239 -2.778882 -45.195723 1.877782 -1.110421 22.632758 -1.989803 -8.573652 -1.125970 -2.050900 -0.000000 -16.122200
0.337356 16.845236 -0.120838 41.429651 81.083599 59.169145 -12.144552 3.284296 -1.831985 -0.756870 9.107900 -9.633857 -0.558062 2.134029 34.875462 1.034237 -1.594048 21.892949 -1.279900 -0.000000 -76.480100 8.743295 1.104688 0.361901 8.530433 -2.568246 -44.799777 1.882403 -1.162788 23.626395 -2.051933 -8.569253 -2.465152 -1.808000 -0.000000 -15.247100
0.489986 16.857705 -0.037046 40.070783 81.008842 57.773940 -12.187468 3.185138 -1.820112 -0.397529 9.083711 -10.755353 -0.425895 2.224093 37.260049 1.170665 -1.325374 23.214193 -1.263500 -0.000001 -72.576000 8.694101 1.037859 0.319273 8.875847 -2.351765 -44.360407 1.888730 -1.198341 24.478589 -2.117407 -8.565825 -3.810067 -1.560900 -0.000000 -14.422300
0.639761 16.871122 0.047633 38.751412 80.897005 56.429927 -12.209376 3.073698 -1.810042 -0.125103 9.010856 -11.928144 -0.305442 2.312115 39.653423 1.305805 -0.780601 24.249827 -1.087100 -0.000000 -68.439000 8.657316 0.973151 0.287654 9.192206 -2.139295 -43.874056 1.898619 -1.218310 25.171554 -2.178235 -8.547101 -5.085456 -1.320800 -0.000001 -13.658699
0.786732 16.885911 0.132649 37.452135 80.748990 55.112672 -12.214863 2.952718 -1.803347 0.070147 8.899249 -13.136206 -0.194263 2.400346 42.023038 1.438709 0.031773 24.999318 -0.748000 0.000000 -64.422800 8.631427 0.909164 0.261945 9.486675 -1.942593 -43.336534 1.913251 -1.224280 25.695627 -2.227111 -8.496951 -6.235854 -1.097200 -0.000000 -12.968800
0.930961 16.902478 0.217576 36.154836 80.565501 53.797158 -12.207451 2.824847 -1.801892 0.199875 8.758784 -14.360151 -0.090316 2.490254 44.337829 1.568844 1.079033 25.470344 -0.263100 0.000000 -60.720400 8.615314 0.845258 0.236771 9.764909 -1.771227 -42.740045 1.933288 -1.217577 26.046428 -2.258693 -8.404205 -7.226349 -0.897800 0.000000 -12.365000
1.072551 16.921192 0.302030 34.829612 80.348895 52.447695 -12.190814 2.691994 -1.806593 0.280663 8.598289 -15.581154 0.007850 2.582149 46.565054 1.696436 2.312639 25.687212 0.336700 0.000000 -57.533000 8.606586 0.780611 0.208287 10.034045 -1.626598 -42.073664 1.959050 -1.198321 26.219253 -2.270971 -8.268080 -8.040268 -0.727900 -0.000000 -11.849700
1.211754 16.942267 0.385802 33.461875 80.100716 51.044843 -12.167108 2.556213 -1.818311 0.326462 8.425748 -16.781407 0.100893 2.675781 48.676371 1.820623 3.670717 25.671761 1.009800 -0.000000 -54.907800 8.603661 0.715172 0.173915 10.297192 -1.507194 -41.327240 1.990277 -1.166549 26.215029 -2.264386 -8.092793 -8.680036 -0.589100 0.000001 -11.419000
1.348779 16.965898 0.468746 32.039252 79.823151 49.573196 -12.138037 2.419050 -1.836586 0.351528 8.246057 -17.944784 0.188929 2.769755 50.642413 1.940726 5.088882 25.462176 1.712600 0.000001 -52.939800 8.604540 0.648853 0.133054 10.556848 -1.405113 -40.490963 2.026262 -1.121729 26.035849 -2.241942 -7.889765 -9.160359 -0.479800 -0.000000 -11.061299
1.483926 16.992017 0.550925 30.567250 79.516942 48.037111 -12.104180 2.282184 -1.860899 0.366363 8.064324 -19.060666 0.271600 2.862655 52.442103 2.054227 6.498811 25.084408 2.400400 0.000000 -51.529900 8.608056 0.581971 0.086948 10.811937 -1.310442 -39.559155 2.065826 -1.063504 25.688197 -2.208016 -7.672813 -9.505920 -0.396300 -0.000000 -10.761600
1.617460 17.020466 0.632528 29.075940 79.181883 46.468234 -12.064922 2.147130 -1.889581 0.373667 7.881353 -20.122710 0.348496 2.952084 54.057153 2.158438 7.841137 24.568890 3.035800 -0.000000 -50.576301 8.614266 0.515420 0.038307 11.056256 -1.214454 -38.534697 2.107530 -0.992279 25.184961 -2.166923 -7.453079 -9.746706 -0.333101 -0.000000 -10.500800
1.749707 17.051007 0.713665 27.576087 78.819214 44.881127 -12.020612 2.014768 -1.920491 0.379789 7.698776 -21.129521 0.418929 3.035941 55.475382 2.250460 9.063475 23.944776 3.588100 -0.000000 -49.948400 8.621725 0.449017 -0.008424 11.288432 -1.101561 -37.419909 2.149885 -0.907689 24.534481 -2.123890 -7.246747 -9.909030 -0.285800 0.000000 -10.261800
1.880994 17.083244 0.794637 26.118771 78.427260 43.333185 -11.969921 1.885673 -1.949930 0.377485 7.510761 -22.084115 0.482320 3.110674 56.686034 2.328865 10.136404 23.253518 4.043700 -0.000000 -49.640200 8.631451 0.383856 -0.049027 11.498965 -0.966280 -36.230956 2.191464 -0.811115 23.755426 -2.081521 -7.057698 -10.018600 -0.249600 -0.000001 -10.025601
2.011577 17.116822 0.875608 24.720397 78.006590 41.846945 -11.913113 1.760303 -1.975325 0.366507 7.317558 -22.993793 0.538082 3.174749 57.691057 2.391164 11.034666 22.507661 4.391400 -0.000001 -49.381700 8.642762 0.319610 -0.078671 11.685505 -0.798617 -34.979915 2.231087 -0.703144 22.859712 -2.042374 -6.892929 -10.090951 -0.221700 -0.000000 -9.780200
2.141704 17.151300 0.956788 23.423456 77.555503 40.472387 -11.849311 1.638414 -1.992703 0.336160 7.111586 -23.866874 0.585609 3.225106 58.488529 2.438288 11.763888 21.746341 4.641201 -0.000000 -49.221400 8.656857 0.257167 -0.094359 11.840721 -0.599779 -33.690271 2.267909 -0.585886 21.867436 -2.005940 -6.746517 -10.136627 -0.199800 0.000000 -9.514100
2.271546 17.186280 1.038311 22.249052 77.073100 39.236459 -11.778478 1.519934 -1.999260 0.279559 6.889574 -24.713574 0.624479 3.260458 59.085598 2.470959 12.336534 20.983522 4.804900 0.000000 -49.020400 8.674494 0.196701 -0.094159 11.961304 -0.373265 -32.382128 2.301505 -0.461301 20.795835 -1.970554 -6.610082 -10.157362 -0.183199 -0.000000 -9.223601
2.401183 17.221457 1.120128 21.197681 76.559899 38.142304 -11.701054 1.404621 -1.993557 0.194652 6.651079 -25.540854 0.654412 3.280620 59.492031 2.490860 12.775622 20.224865 4.897900 0.000000 -48.637700 8.696051 0.138096 -0.077838 12.047675 -0.124231 -31.070492 2.331797 -0.331187 19.658136 -1.933784 -6.474586 -10.146486 -0.172500 0.000000 -8.915600
2.530691 17.256494 1.202265 20.277081 76.014895 37.200368 -11.616852 1.292002 -1.974030 0.075545 6.391957 -26.354381 0.675173 3.285020 59.714235 2.501824 13.119778 19.489399 4.944800 -0.000000 -48.145200 8.723058 0.081963 -0.047701 12.098402 0.133682 -29.773774 2.359056 -0.198251 18.472898 -1.891620 -6.324053 -10.095354 -0.168200 0.000000 -8.600800
2.660008 17.291128 1.284574 19.476480 75.438717 36.398446 -11.526209 1.181958 -1.940757 -0.076993 6.112624 -27.155554 0.686795 3.274486 59.761903 2.507054 13.404073 18.776904 4.964200 -0.000001 -47.503400 8.756495 0.028345 -0.006998 12.115332 0.388042 -28.501890 2.383711 -0.064823 17.254351 -1.840421 -6.145389 -9.991945 -0.171301 0.000000 -8.299100
2.789033 17.325155 1.366908 18.779904 74.832288 35.715559 -11.429509 1.074624 -1.895004 -0.259904 5.815390 -27.940652 0.689377 3.250299 59.643214 2.509606 13.660529 18.083478 4.971200 0.000000 -46.700900 8.797255 -0.022705 0.039741 12.101237 0.626066 -27.258630 2.406196 0.066767 16.015841 -1.777170 -5.927892 -9.825495 -0.182400 -0.000000 -8.033500
2.917707 17.358336 1.449122 18.171758 74.196671 35.132817 -11.326935 0.969882 -1.838229 -0.469130 5.500504 -28.704922 0.683035 3.213591 59.363109 2.512712 13.917998 17.413615 4.979901 0.000000 -45.854599 8.846057 -0.070712 0.087423 12.058670 0.836684 -26.047977 2.426886 0.194110 14.772566 -1.699873 -5.663501 -9.589673 -0.201200 0.000000 -7.826900
3.045869 17.390460 1.531036 17.635546 73.534048 34.624983 -11.218945 0.868503 -1.772738 -0.698953 5.171545 -29.438124 0.668059 3.165972 58.927980 2.517740 14.190309 16.756950 4.994400 0.000000 -44.973600 8.903367 -0.115655 0.131331 11.990135 1.011214 -24.866240 2.445932 0.314986 13.538666 -1.607945 -5.348477 -9.283883 -0.226101 0.000000 -7.696200
3.173490 17.421301 1.612479 17.154663 72.846979 34.171431 -11.105986 0.770722 -1.700648 -0.942417 4.830048 -30.132384 0.644619 3.108748 58.340798 2.525668 14.483074 16.115508 5.017100 0.000000 -44.168999 8.968758 -0.157141 0.167637 11.899113 1.147672 -23.711756 2.463284 0.427634 12.328219 -1.502676 -4.985025 -8.913849 -0.254700 0.000000 -7.651600
3.300441 17.450632 1.693345 16.717973 72.138273 33.753523 -10.988627 0.677588 -1.624144 -1.193636 4.479391 -30.777682 0.612979 3.043373 57.607267 2.535398 14.786650 15.477820 5.041500 0.000001 -43.425801 9.041871 -0.195139 0.193674 11.787272 1.245931 -22.579249 2.478609 0.530428 11.156162 -1.386445 -4.577719 -8.492978 -0.283700 0.000000 -7.692400
3.426818 17.478151 1.773474 16.310665 71.411670 33.354646 -10.867635 0.589466 -1.544549 -1.445416 4.120677 -31.368598 0.573426 2.970897 56.731280 2.545526 15.085175 14.847188 5.061600 -0.000001 -42.836600 9.121081 -0.229576 0.208806 11.658351 1.314164 -21.466777 2.491551 0.622650 10.034794 -1.263170 -4.136980 -8.039224 -0.309700 -0.000000 -7.808000
3.552681 17.503617 1.852778 15.923242 70.670891 32.963526 -10.743956 0.507050 -1.462657 -1.691845 3.755756 -31.901552 0.526264 2.892372 55.719170 2.553415 15.354744 14.222184 5.067800 0.000000 -42.408400 9.204726 -0.260714 0.213614 11.515030 1.361454 -20.371629 2.501705 0.703946 8.975774 -1.136938 -3.673622 -7.574040 -0.329800 0.000000 -7.979300
3.678181 17.526727 1.931171 15.545252 69.920130 32.571028 -10.618683 0.430449 -1.378411 -1.926607 3.385518 -32.378802 0.471908 2.808717 54.579183 2.556038 15.568731 13.605706 5.051400 -0.000000 -42.144900 9.290387 -0.289017 0.210554 11.361791 1.401348 -19.294353 2.508891 0.774812 7.987034 -1.012093 -3.200563 -7.119972 -0.342100 0.000000 -8.179200
